#N canvas 137 94 587 522 10;
#X text 27 84 Analog Sensors;
#X obj 22 269 snapshot~;
#X obj 67 179 loadbang;
#X obj 67 207 metro 200;
#X obj 22 306 print;
#X text 99 271 Sample the value;
#X text 14 396 ............................;
#X text 14 406 . ____ ._____ _ .......___ .;
#X text 14 416 .| __ )| ____| |....../ _ |.;
#X text 14 436 .| |_) | |___| |___ / ___ |.;
#X text 14 446 .|____/|_____|_____/_/..._|.io;
#X text 14 456 ............................;
#X text 14 426 .| __ || __|.| |...../ _| |.;
#X obj 22 128 adc~ 3;
#X text 37 103 A0 (ADC 3);
#X text 145 208 Check the value every 200 ms;
#X text 333 48 Prints the value of A0;
#X text 334 32 PRINT ANALOGUE VALUE EXAMPLE;
#X connect 1 0 4 0;
#X connect 2 0 3 0;
#X connect 3 0 1 0;
#X connect 13 0 1 0;
