#N canvas 137 94 642 521 10;
#X obj 51 290 print;
#X text 30 397 ............................;
#X text 30 407 . ____ ._____ _ .......___ .;
#X text 30 417 .| __ )| ____| |....../ _ |.;
#X text 30 437 .| |_) | |___| |___ / ___ |.;
#X text 30 447 .|____/|_____|_____/_/..._|.io;
#X text 30 457 ............................;
#X text 30 427 .| __ || __|.| |...../ _| |.;
#X obj 51 234 r bela_digitalIn11;
#X obj 50 73 loadbang;
#X text 51 214 Digital in pin 0 \, control rate;
#X obj 50 129 s bela_setDigital @hv_param;
#X text 280 141 is required by Heavy;
#X text 279 154 and it is ignored by libpd;
#X text 252 130 <<< The "@hv_param" parameter;
#X obj 51 259 change;
#X text 374 33 Digital 0;
#X text 373 14 PRINT SENSOR BUTTON EXAMPLE;
#X msg 50 95 in 11;
#X text 128 73 say which pins we are using;
#X text 120 260 Only pass on values that are not repeats;
#X connect 8 0 15 0;
#X connect 9 0 18 0;
#X connect 15 0 0 0;
#X connect 18 0 11 0;
