#N canvas 188 184 992 523 10;
#X obj 657 208 loadbang;
#X text 723 207 use loadbang to initalise multiple digital pins at
startup;
#X obj 657 264 s bela_setDigital @hv_param;
#X text 863 272 is required by Heavy;
#X text 863 282 and it is ignored by libpd;
#X text 839 262 <<< The "@hv_param" parameter;
#X obj 53 88 r bela_digitalIn11;
#X text 51 68 Digital in pin 0 \, control rate;
#X text 263 68 Digital in pin 1 \, control rate;
#X obj 53 113 change;
#X msg 657 230 in 11;
#X text 521 182;
#X text 568 18 BUTTON COUNTER Triggers a sound sample when button on
Digital In 0 pressed required number of times;
#X obj 254 436 loadbang;
#X text 144 385 Click here to add 1 to the counter;
#X obj 663 422 soundfiler;
#X obj 124 660 tabplay~ drumarray;
#X obj 124 726 dac~;
#N canvas 0 22 450 278 (subpatch) 0;
#X array drumarray 5283 float 2;
#X coords 0 1 5283 -1 200 140 1;
#X restore 658 471 graph;
#X msg 125 599 1;
#X text 247 632 Stop playing;
#X text 159 601 Start playing;
#X msg 207 632 stop;
#X obj 663 364 loadbang;
#X text 734 363 Will load this file into the array when patch opened
;
#X obj 125 695 *~ 0.5;
#N canvas 710 142 570 427 counter-trigger 0;
#X obj 61 27 inlet;
#X obj 136 345 outlet;
#X obj 376 27 inlet;
#X floatatom 136 217 5 0 0 0 - - -, f 5;
#X obj 136 172 i;
#X obj 173 130 + 1, f 6;
#X msg 164 84 0;
#X text 186 216 The current count;
#X text 170 172 Store the number;
#X text 221 130 Add 1 to the number and output the answer;
#X text 173 264 If the counter is greater than a threshold;
#X obj 136 304 select 1;
#X text 423 26 Reset counter;
#X text 207 306 Listen for only 1's;
#X obj 136 262 == 5;
#X obj 229 27 inlet;
#X text 272 26 Threshold;
#X text 106 26 Counter input;
#X obj 24 242 print counted;
#X connect 0 0 4 0;
#X connect 2 0 6 0;
#X connect 3 0 14 0;
#X connect 3 0 18 0;
#X connect 4 0 3 0;
#X connect 4 0 5 0;
#X connect 5 0 4 1;
#X connect 6 0 4 0;
#X connect 11 0 1 0;
#X connect 14 0 11 0;
#X connect 15 0 14 1;
#X restore 126 497 pd counter-trigger;
#X obj 126 386 bng 15 250 50 0 empty empty empty 17 7 0 10 -262144
-1 -1;
#X obj 266 466 bng 15 250 50 0 empty empty empty 17 7 0 10 -262144
-1 -1;
#X obj 153 545 bng 15 250 50 0 empty empty empty 17 7 0 10 -262144
-1 -1;
#X msg 180 435 6;
#X text 288 464 Reset to 0;
#X obj 208 531 delay 5;
#X text 171 727 Sound output to headphones;
#X obj 180 410 loadbang;
#X msg 663 394 read -resize ./hihat.wav drumarray;
#X obj 46 191 select 0;
#X text 112 192 Listen for 0's only (button is pressed);
#X text 106 115 Only pass on new values \, not repeats;
#X obj 36 660 print play;
#X obj 46 227 print in;
#X obj 65 153 debounce;
#X connect 0 0 10 0;
#X connect 6 0 9 0;
#X connect 9 0 41 0;
#X connect 10 0 2 0;
#X connect 13 0 26 2;
#X connect 16 0 25 0;
#X connect 19 0 16 0;
#X connect 22 0 16 0;
#X connect 23 0 35 0;
#X connect 25 0 17 0;
#X connect 25 0 17 1;
#X connect 26 0 29 0;
#X connect 26 0 19 0;
#X connect 26 0 32 0;
#X connect 26 0 39 0;
#X connect 27 0 26 0;
#X connect 28 0 26 2;
#X connect 30 0 26 1;
#X connect 32 0 28 0;
#X connect 34 0 30 0;
#X connect 35 0 15 0;
#X connect 36 0 40 0;
#X connect 36 0 26 0;
#X connect 41 0 36 0;
