#N canvas 68 81 1058 687 10;
#X obj 572 189 loadbang;
#X obj 572 245 s bela_setDigital @hv_param;
#X text 810 253 is required by Heavy;
#X text 810 263 and it is ignored by libpd;
#X text 786 243 <<< The "@hv_param" parameter;
#X obj 53 88 r bela_digitalIn11;
#X obj 53 113 change;
#X msg 572 211 in 11;
#X obj 193 262 loadbang;
#X obj 578 403 soundfiler;
#X obj 55 450 tabplay~ drumarray;
#X obj 55 516 dac~;
#N canvas 0 22 450 278 (subpatch) 0;
#X array drumarray 5283 float 2;
#X coords 0 1 5283 -1 200 140 1;
#X restore 573 452 graph;
#X msg 55 396 1;
#X text 178 422 Stop playing;
#X text 89 398 Start playing;
#X msg 138 422 stop;
#X obj 578 345 loadbang;
#X text 649 344 Will load this file into the array when patch opened
;
#N canvas 710 142 570 427 counter-trigger 0;
#X obj 61 27 inlet;
#X obj 136 345 outlet;
#X obj 376 27 inlet;
#X floatatom 136 217 5 0 0 0 - - -, f 5;
#X obj 136 172 i;
#X obj 173 130 + 1, f 6;
#X msg 164 84 0;
#X text 186 216 The current count;
#X text 170 172 Store the number;
#X text 221 130 Add 1 to the number and output the answer;
#X text 173 264 If the counter is greater than a threshold;
#X obj 136 304 select 1;
#X text 423 26 Reset counter;
#X text 207 306 Listen for only 1's;
#X obj 136 262 == 5;
#X obj 229 27 inlet;
#X text 272 26 Threshold;
#X text 106 26 Counter input;
#X obj 24 242 print counted;
#X connect 0 0 4 0;
#X connect 2 0 6 0;
#X connect 3 0 14 0;
#X connect 3 0 18 0;
#X connect 4 0 3 0;
#X connect 4 0 5 0;
#X connect 5 0 4 1;
#X connect 6 0 4 0;
#X connect 11 0 1 0;
#X connect 14 0 11 0;
#X connect 15 0 14 1;
#X restore 55 316 pd counter-trigger;
#X obj 195 285 bng 15 250 50 0 empty empty empty 17 7 0 10 -262144
-1 -1;
#X msg 78 235 6;
#X text 217 283 Reset to 0;
#X obj 137 350 delay 5;
#X text 101 517 Sound output to headphones;
#X obj 78 210 loadbang;
#X msg 578 375 read -resize ./hihat.wav drumarray;
#X obj 53 182 select 0;
#X text 119 183 Listen for 0's only (button is pressed);
#X text 106 115 Only pass on new values \, not repeats;
#X text 50 577 ............................;
#X text 50 587 . ____ ._____ _ .......___ .;
#X text 50 597 .| __ )| ____| |....../ _ |.;
#X text 50 617 .| |_) | |___| |___ / ___ |.;
#X text 50 627 .|____/|_____|_____/_/..._|.io;
#X text 50 637 ............................;
#X text 50 607 .| __ || __|.| |...../ _| |.;
#X text 567 43 Triggers a sound sample when button on;
#X text 568 18 BUTTON COUNTER;
#X text 567 60 Digital In 0 pressed required number of times;
#X text 626 212 Say which pin we are using;
#N canvas 355 62 485 407 debounce 1;
#X obj 62 12 inlet;
#X obj 65 270 outlet;
#X msg 86 227 0;
#X msg 115 171 1;
#X obj 65 195 spigot 1;
#X text 125 9 if we get a stream of bangs \, let one through;
#X text 123 19 then block the rest until we are clear for \$1;
#X text 123 31 milliseconds (default 50 ms);
#X text 106 93 converts every left input into a bang;
#X text 99 52 right input sets time in ms;
#X obj 115 145 delay 90;
#X obj 62 91 t b f;
#X connect 0 0 11 0;
#X connect 2 0 4 1;
#X connect 3 0 4 1;
#X connect 4 0 2 0;
#X connect 4 0 1 0;
#X connect 10 0 3 0;
#X connect 11 0 10 0;
#X connect 11 1 4 0;
#X restore 53 148 pd debounce;
#X text 145 150 Make sure we don't get false changes;
#X text 117 236 What we are counting to;
#X obj 55 485 *~ 0.8;
#X text 193 90 Digital in pin 0;
#X connect 0 0 7 0;
#X connect 5 0 6 0;
#X connect 6 0 41 0;
#X connect 7 0 1 0;
#X connect 8 0 19 2;
#X connect 10 0 44 0;
#X connect 13 0 10 0;
#X connect 16 0 10 0;
#X connect 17 0 26 0;
#X connect 19 0 13 0;
#X connect 19 0 23 0;
#X connect 20 0 19 2;
#X connect 21 0 19 1;
#X connect 23 0 20 0;
#X connect 25 0 21 0;
#X connect 26 0 9 0;
#X connect 27 0 19 0;
#X connect 41 0 27 0;
#X connect 44 0 11 0;
#X connect 44 0 11 1;
