#N canvas 197 228 470 320 10;
#X obj 62 12 inlet;
#X obj 65 270 outlet;
#X msg 86 227 0;
#X msg 115 171 1;
#X obj 65 195 spigot 1;
#X text 125 9 if we get a stream of bangs \, let one through;
#X text 123 19 then block the rest until we are clear for \$1;
#X text 123 31 milliseconds (default 50 ms);
#X text 106 93 converts every left input into a bang;
#X text 99 52 right input sets time in ms;
#X text 305 243 Modified from https://github.com/ruohoruotsi/pure-data-workbench/blob/master/RjDj%20Scene%20Composer%20Pack/Scenes/rjdj_scenes/SummerScene.rj/d-default.pd
;
#X obj 115 145 delay 90;
#X obj 62 91 t b f;
#X connect 0 0 12 0;
#X connect 2 0 4 1;
#X connect 3 0 4 1;
#X connect 4 0 2 0;
#X connect 4 0 1 0;
#X connect 11 0 3 0;
#X connect 12 0 11 0;
#X connect 12 1 4 0;
