#N canvas 383 79 742 359 10;
#X obj 248 302 dac~;
#X msg 199 134 1;
#X msg 262 134 0;
#X msg 231 69 open ./Lament.wav;
#X obj 245 182 readsf~ 1;
#X obj 217 256 *~ 0.5;
#X obj 276 255 *~ 0.5;
#X obj 232 27 loadbang;
#X text 363 69 Change the file name here;
#X text 544 11 AUTO-PLAY AUDIO EXAMPLE;
#X obj 335 124 loadbang;
#X text 401 123 use loadbang to initalise multiple digital pins at
startup;
#X obj 335 180 s bela_setDigital @hv_param;
#X text 541 188 is required by Heavy;
#X text 541 198 and it is ignored by libpd;
#X text 517 178 <<< The "@hv_param" parameter;
#X obj 71 55 r bela_digitalIn11;
#X obj 71 80 change;
#X msg 335 146 in 11;
#X connect 1 0 4 0;
#X connect 2 0 4 0;
#X connect 3 0 4 0;
#X connect 4 0 5 0;
#X connect 4 0 6 0;
#X connect 5 0 0 0;
#X connect 6 0 0 1;
#X connect 7 0 3 0;
#X connect 10 0 18 0;
#X connect 16 0 17 0;
#X connect 17 0 4 0;
#X connect 18 0 12 0;
