#N canvas 493 71 661 520 10;
#X msg 235 148 0.3;
#X text 230 98 Minimum;
#X text 330 99 Maximum;
#X msg 333 148 0.4;
#X obj 32 37 adc~ 3;
#X obj 32 117 snapshot~;
#X obj 106 86 metro 200;
#X obj 106 62 loadbang;
#X obj 233 119 loadbang;
#X obj 333 121 loadbang;
#X text 18 430 ............................;
#X text 18 440 . ____ ._____ _ .......___ .;
#X text 18 450 .| __ )| ____| |....../ _ |.;
#X text 18 470 .| |_) | |___| |___ / ___ |.;
#X text 18 480 .|____/|_____|_____/_/..._|.io;
#X text 18 490 ............................;
#X text 18 460 .| __ || __|.| |...../ _| |.;
#X text 440 19 CALIBRATE ANALOGUE EXAMPLE;
#X text 443 55 so that it goes from 0 to 1;
#X text 442 38 Extend of the analogue sensor;
#X obj 50 330 osc~ 440;
#X obj 49 361 *~ 0.6;
#X obj 53 295 + 100;
#X obj 52 266 * 800;
#X obj 50 395 dac~ 1 2 27 28;
#N canvas 175 95 579 423 calibrate 1;
#X obj 131 106 clip 0.3 0.4;
#X obj 162 168 -;
#X obj 162 203 /;
#X obj 247 149 -;
#X text 290 87 new output =;
#X obj 33 265 pack f f;
#X text 110 270 Will print the input value;
#X text 110 286 then the calibrated value;
#X obj 33 292 print;
#X text 391 84 ___________________;
#X text 398 73 (input - minimum);
#X text 391 103 (maximum - minimum);
#X obj 42 45 inlet;
#X obj 156 48 inlet;
#X obj 237 48 inlet;
#X text 39 20 Raw Input;
#X text 153 23 Minimum;
#X text 231 24 Maximum;
#X obj 162 365 outlet;
#X connect 0 0 1 0;
#X connect 1 0 2 0;
#X connect 2 0 5 1;
#X connect 2 0 18 0;
#X connect 3 0 2 1;
#X connect 5 0 8 0;
#X connect 12 0 0 0;
#X connect 12 0 5 0;
#X connect 13 0 0 1;
#X connect 13 0 1 1;
#X connect 13 0 3 1;
#X connect 14 0 0 2;
#X connect 14 0 3 0;
#X restore 208 205 pd calibrate;
#X text 102 37 Read in the analogue sensor;
#X text 178 394 Can also view in oscilloscope;
#X connect 0 0 25 1;
#X connect 3 0 25 2;
#X connect 4 0 5 0;
#X connect 4 0 24 2;
#X connect 5 0 25 0;
#X connect 6 0 5 0;
#X connect 7 0 6 0;
#X connect 8 0 0 0;
#X connect 9 0 3 0;
#X connect 20 0 21 0;
#X connect 21 0 24 0;
#X connect 21 0 24 1;
#X connect 22 0 20 0;
#X connect 23 0 22 0;
#X connect 25 0 23 0;
#X connect 25 0 24 3;
