#N canvas 1375 112 1044 684 10;
#X text 111 65 Analog Sensors;
#X text 121 84 A0 (ADC 3) A1 (ADC 4) A2 (ADC 5) A3 (ADC 6) A4 (ADC
7);
#X text 675 61 Digital Sensors;
#X text 669 81 Digital 0 (in 11) Digital 1 (in 12);
#X obj 22 306 snapshot~;
#X obj 242 155 loadbang;
#X obj 242 183 metro 200;
#X obj 430 455 print;
#X obj 111 306 snapshot~;
#X obj 191 306 snapshot~;
#X obj 271 306 snapshot~;
#X obj 353 306 snapshot~;
#X text 423 305 Sample the value;
#X text 20 577 ............................;
#X text 20 587 . ____ ._____ _ .......___ .;
#X text 20 597 .| __ )| ____| |....../ _ |.;
#X text 20 617 .| |_) | |___| |___ / ___ |.;
#X text 20 627 .|____/|_____|_____/_/..._|.io;
#X text 20 637 ............................;
#X text 20 607 .| __ || __|.| |...../ _| |.;
#X obj 549 294 r bela_digitalIn11;
#X obj 761 294 r bela_digitalIn12;
#X obj 548 133 loadbang;
#X text 614 132 use loadbang to initalise multiple digital pins at
startup;
#X text 547 274 Digital in pin 0 \, control rate;
#X text 759 274 Digital in pin 1 \, control rate;
#X obj 548 189 s bela_setDigital @hv_param;
#X text 754 197 is required by Heavy;
#X text 754 207 and it is ignored by libpd;
#X text 730 187 <<< The "@hv_param" parameter;
#X msg 548 155 in 11 \, in 12;
#X obj 549 319 change;
#X obj 761 319 change;
#X msg 430 428 A0: \$1 A1: \$2 A2: \$3 A3: \$4 A4: \$5 D0: \$6 D1:
\$7;
#X obj 430 401 pack f f f f f 0 0;
#X text 857 13 PRINT SENSOR VALUES EXAMPLE Prints all values for A0-A5
and Digital 0 and 1;
#X obj 22 128 adc~ 3 4 5 6 7;
#X text 309 177 rate of printing (one print every 200 ms);
#X connect 4 0 34 0;
#X connect 5 0 6 0;
#X connect 6 0 4 0;
#X connect 6 0 8 0;
#X connect 6 0 9 0;
#X connect 6 0 10 0;
#X connect 6 0 11 0;
#X connect 8 0 34 1;
#X connect 9 0 34 2;
#X connect 10 0 34 3;
#X connect 11 0 34 4;
#X connect 20 0 31 0;
#X connect 21 0 32 0;
#X connect 22 0 30 0;
#X connect 30 0 26 0;
#X connect 31 0 34 5;
#X connect 32 0 34 6;
#X connect 33 0 7 0;
#X connect 34 0 33 0;
#X connect 36 0 4 0;
#X connect 36 1 8 0;
#X connect 36 2 9 0;
#X connect 36 3 10 0;
#X connect 36 4 11 0;
