#N canvas 233 71 783 696 10;
#N canvas 0 22 450 278 (subpatch) 0;
#X array wavarray 352846 float 2;
#X coords 0 1 352846 -1 200 140 1;
#X restore 439 464 graph;
#X obj 437 422 soundfiler;
#X obj 150 367 tabplay~ wavarray;
#X msg 219 283 bang;
#X msg 85 278 stop;
#X obj 150 399 dac~;
#X obj 437 375 loadbang;
#X obj 84 44 adc~ 3;
#X msg 437 400 read -resize ./slow-drum-loop.wav wavarray;
#X obj 161 135 snapshot~;
#X obj 161 169 print;
#X obj 161 79 loadbang;
#X obj 161 101 metro 500;
#X obj 85 246 threshold~ 0.35 50 0.33 50;
#X obj 228 329 print;
#X text 498 19 PLAY AUDIO ON ANALOGUE THRESHOLD;
#X text 499 37 Sound file is played only when analogue;
#X text 499 53 value is above threshold;
#X text 33 576 ............................;
#X text 33 586 . ____ ._____ _ .......___ .;
#X text 33 596 .| __ )| ____| |....../ _ |.;
#X text 33 616 .| |_) | |___| |___ / ___ |.;
#X text 33 626 .|____/|_____|_____/_/..._|.io;
#X text 33 636 ............................;
#X text 33 606 .| __ || __|.| |...../ _| |.;
#X text 282 275 if less than the third number \, start the audio;
#X text 281 256 the first number \, then stop the audio;
#X text 283 236 If the input is is greater the;
#X text 214 170 Print the sensor value;
#X text 279 328 Print when playing or stopping;
#X connect 2 0 5 0;
#X connect 2 0 5 1;
#X connect 3 0 2 0;
#X connect 3 0 14 0;
#X connect 4 0 2 0;
#X connect 4 0 14 0;
#X connect 6 0 8 0;
#X connect 7 0 9 0;
#X connect 7 0 13 0;
#X connect 8 0 1 0;
#X connect 9 0 10 0;
#X connect 11 0 12 0;
#X connect 12 0 9 0;
#X connect 13 0 4 0;
#X connect 13 1 3 0;
